<svg width="180" height="180" viewBox="0 0 180 180" fill="none" xmlns="http://www.w3.org/2000/svg">
<path d="M19.6875 81.5625H59.0625V151.875H19.6875V81.5625Z" fill="#E74111"/>
<path d="M109.156 20.3906C107.159 18.004 104.568 16.1863 101.644 15.1208C98.72 14.0553 95.5669 13.7796 92.5025 14.3215C89.4382 14.8635 86.5709 16.2039 84.19 18.2077C81.809 20.2114 79.9985 22.8076 78.9411 25.7343L73.1249 42.1875L67.303 25.7259C66.2426 22.7985 64.4295 20.2022 62.0464 18.1985C59.6632 16.1948 56.7942 14.8545 53.7282 14.3124C50.6622 13.7704 47.5075 14.0458 44.5819 15.111C41.6562 16.1762 39.0628 17.9934 37.063 20.3798C35.0632 22.7662 33.7275 25.6374 33.1904 28.7043C32.6533 31.7711 32.9339 34.9254 34.0038 37.8493C35.0737 40.7732 36.8952 43.3636 39.2848 45.3596C41.6744 47.3556 44.5477 48.6866 47.6155 49.2187L73.1249 53.4768L98.6539 49.2187C101.719 48.6838 104.589 47.3504 106.974 45.353C109.359 43.3556 111.176 40.7647 112.241 37.8414C113.306 34.9181 113.581 31.7658 113.04 28.7021C112.498 25.6384 111.158 22.7716 109.156 20.3906ZM48.5633 43.6725C46.4712 43.3073 44.5122 42.3976 42.8833 41.0349C41.2543 39.6723 40.013 37.9047 39.284 35.91C38.555 33.9153 38.3642 31.7638 38.7307 29.6719C39.0972 27.5801 40.008 25.6216 41.3717 23.9935C42.7353 22.3654 44.5036 21.1251 46.4988 20.3974C48.4939 19.6696 50.6455 19.4801 52.7372 19.8478C54.8288 20.2156 56.7867 21.1276 58.414 22.4922C60.0413 23.8569 61.2805 25.6259 62.007 27.6215L68.8808 47.0643L48.5633 43.6725ZM103.356 41.04C101.737 42.3977 99.7879 43.3047 97.7061 43.6697L77.3689 47.0643L84.237 27.644C85.0791 25.3145 86.6183 23.301 88.6454 21.8773C90.6724 20.4537 93.0888 19.6891 95.5658 19.6875C95.9202 19.6875 96.2774 19.6875 96.6374 19.7353C99.0184 19.9453 101.284 20.8562 103.148 22.3529C105.011 23.8497 106.39 25.8651 107.109 28.1447C107.827 30.4244 107.855 32.8659 107.187 35.1611C106.519 37.4562 105.186 39.5019 103.356 41.04Z" fill="#FBBA00"/>
<path d="M36.9788 50.625H11.25V75.9375H59.0625V56.8322L46.6875 54.7678C43.1792 54.1402 39.8594 52.7236 36.9788 50.625Z" fill="#E74111"/>
<path d="M64.6875 151.875H81.5625V57.7687L73.125 59.1777L64.6875 57.7687V151.875Z" fill="#E74111"/>
<path d="M109.268 50.625C106.41 52.7157 103.113 54.1286 99.6272 54.7566L87.1875 56.8322V75.9375H135V50.625H109.268Z" fill="#E74111"/>
<path d="M135 92.8125C128.325 92.8125 121.8 94.7919 116.25 98.5004C110.699 102.209 106.374 107.48 103.819 113.647C101.265 119.814 100.596 126.6 101.899 133.147C103.201 139.694 106.415 145.707 111.135 150.427C115.855 155.147 121.869 158.362 128.416 159.664C134.963 160.966 141.749 160.298 147.916 157.743C154.083 155.189 159.354 150.863 163.062 145.313C166.771 139.763 168.75 133.238 168.75 126.562C168.75 117.611 165.194 109.027 158.865 102.698C152.536 96.3683 143.951 92.8125 135 92.8125ZM154.688 129.375H137.813V146.25H132.188V129.375H115.313V123.75H132.188V106.875H137.813V123.75H154.688V129.375Z" fill="#FBBA00"/>
<path d="M95.625 126.562C95.6386 117.591 98.7116 108.893 104.336 101.904C109.961 94.9145 117.801 90.0527 126.562 88.1213V81.5625H87.1875V151.875H104.884C98.9008 144.798 95.6202 135.83 95.625 126.562Z" fill="#E74111"/>
</svg>
