<svg width="16" height="16" viewBox="0 0 16 16" fill="none" xmlns="http://www.w3.org/2000/svg">
<g clip-path="url(#clip0_254_8882)">
<path d="M0.804973 2.57544V5.05432H15.1953V2.57544C15.1953 2.2049 14.9867 1.88297 14.6802 1.72136C14.5457 1.64989 14.3924 1.60965 14.2295 1.60965H1.77077C1.40022 1.60965 1.07829 1.81826 0.916683 2.12474C0.845214 2.25931 0.804973 2.41255 0.804973 2.57544Z" fill="#E74111"/>
<path d="M12.5553 6.98013H10.899C10.8101 6.98013 10.738 7.05221 10.738 7.1411V8.79744C10.738 8.88632 10.8101 8.9584 10.899 8.9584H12.5553C12.6442 8.9584 12.7163 8.88632 12.7163 8.79744V7.1411C12.7163 7.05221 12.6442 6.98013 12.5553 6.98013Z" fill="#D9D9D9"/>
<path d="M12.5553 9.44131H10.899C10.8101 9.44131 10.738 9.5134 10.738 9.60228V11.2589C10.738 11.3478 10.8101 11.4199 10.899 11.4199H12.5553C12.6442 11.4199 12.7163 11.3478 12.7163 11.2589V9.60228C12.7163 9.5134 12.6442 9.44131 12.5553 9.44131Z" fill="#D9D9D9"/>
<path d="M12.5553 11.9028H10.899C10.8101 11.9028 10.738 11.9749 10.738 12.0638V13.7201C10.738 13.809 10.8101 13.8811 10.899 13.8811H12.5553C12.6442 13.8811 12.7163 13.809 12.7163 13.7201V12.0638C12.7163 11.9749 12.6442 11.9028 12.5553 11.9028Z" fill="#D9D9D9"/>
<path d="M10.0944 6.98013H8.40265C8.31377 6.98013 8.24169 7.05221 8.24169 7.1411V8.79744C8.24169 8.88632 8.31377 8.9584 8.40265 8.9584H10.0944C10.1833 8.9584 10.2554 8.88632 10.2554 8.79744V7.1411C10.2554 7.05221 10.1833 6.98013 10.0944 6.98013Z" fill="#D9D9D9"/>
<path d="M10.0944 9.44131H8.40265C8.31377 9.44131 8.24169 9.5134 8.24169 9.60228V11.2589C8.24169 11.3478 8.31377 11.4199 8.40265 11.4199H10.0944C10.1833 11.4199 10.2554 11.3478 10.2554 11.2589V9.60228C10.2554 9.5134 10.1833 9.44131 10.0944 9.44131Z" fill="#D9D9D9"/>
<path d="M10.0944 11.9028H8.40265C8.31377 11.9028 8.24169 11.9749 8.24169 12.0638V13.7201C8.24169 13.809 8.31377 13.8811 8.40265 13.8811H10.0944C10.1833 13.8811 10.2554 13.809 10.2554 13.7201V12.0638C10.2554 11.9749 10.1833 11.9028 10.0944 11.9028Z" fill="#D9D9D9"/>
<path d="M7.59782 6.98013H5.90607C5.81719 6.98013 5.74511 7.05221 5.74511 7.1411V8.79744C5.74511 8.88632 5.81719 8.9584 5.90607 8.9584H7.59782C7.68671 8.9584 7.75879 8.88632 7.75879 8.79744V7.1411C7.75879 7.05221 7.68671 6.98013 7.59782 6.98013Z" fill="#D9D9D9"/>
<path d="M7.59782 9.44131H5.90607C5.81719 9.44131 5.74511 9.5134 5.74511 9.60228V11.2589C5.74511 11.3478 5.81719 11.4199 5.90607 11.4199H7.59782C7.68671 11.4199 7.75879 11.3478 7.75879 11.2589V9.60228C7.75879 9.5134 7.68671 9.44131 7.59782 9.44131Z" fill="#D9D9D9"/>
<path d="M7.59782 11.9028H5.90607C5.81719 11.9028 5.74511 11.9749 5.74511 12.0638V13.7201C5.74511 13.809 5.81719 13.8811 5.90607 13.8811H7.59782C7.68671 13.8811 7.75879 13.809 7.75879 13.7201V12.0638C7.75879 11.9749 7.68671 11.9028 7.59782 11.9028Z" fill="#D9D9D9"/>
<path d="M3.28394 7.1411V8.79744C3.28394 8.88632 3.35602 8.9584 3.4449 8.9584H5.10124C5.19013 8.9584 5.26221 8.88632 5.26221 8.79744V7.1411C5.26221 7.05221 5.19013 6.98013 5.10124 6.98013H3.4449C3.35602 6.98013 3.28394 7.05221 3.28394 7.1411Z" fill="#D9D9D9"/>
<path d="M5.10124 9.44131H3.4449C3.35602 9.44131 3.28394 9.5134 3.28394 9.60228V11.2589C3.28394 11.3478 3.35602 11.4199 3.4449 11.4199H5.10124C5.19013 11.4199 5.26221 11.3478 5.26221 11.2589V9.60228C5.26221 9.5134 5.19013 9.44131 5.10124 9.44131Z" fill="#D9D9D9"/>
<path d="M5.10124 11.9028H3.4449C3.35602 11.9028 3.28394 11.9749 3.28394 12.0638V13.7201C3.28394 13.809 3.35602 13.8811 3.4449 13.8811H5.10124C5.19013 13.8811 5.26221 13.809 5.26221 13.7201V12.0638C5.26221 11.9749 5.19013 11.9028 5.10124 11.9028Z" fill="#D9D9D9"/>
<path d="M15.2002 5.60001V15.1009C15.2002 15.5975 14.7676 16 14.2338 16H1.76664C1.23284 16 0.800197 15.5975 0.800197 15.1009V5.60001H15.2002Z" fill="#E74111"/>
<path d="M11.3322 0.321932V2.89738C11.3322 3.07509 11.4765 3.21932 11.6542 3.21932H12.62C12.7977 3.21932 12.9419 3.07509 12.9419 2.89738V0.321932C12.9419 0.144225 12.7977 0 12.62 0H11.6542C11.4765 0 11.3322 0.144225 11.3322 0.321932Z" fill="#E74111"/>
<path d="M12.7163 6.98013H10.738V8.9584H12.7163V6.98013Z" fill="#FDECE8"/>
<path d="M5.26221 6.98013H3.28394V8.9584H5.26221V6.98013Z" fill="#FDECE8"/>
<path d="M10.2554 6.98013H8.24169V8.9584H10.2554V6.98013Z" fill="#FDECE8"/>
<path d="M12.7163 9.44128H10.738V11.4199H12.7163V9.44128Z" fill="#FDECE8"/>
<path d="M5.26221 9.44128H3.28394V11.4199H5.26221V9.44128Z" fill="#FDECE8"/>
<path d="M10.2554 9.44128H8.24169V11.4199H10.2554V9.44128Z" fill="#FDECE8"/>
<path d="M12.7163 11.9028H10.738V13.881H12.7163V11.9028Z" fill="#FDECE8"/>
<path d="M5.26221 11.9028H3.28394V13.881H5.26221V11.9028Z" fill="#FDECE8"/>
<path d="M10.2554 11.9028H8.24169V13.881H10.2554V11.9028Z" fill="#FDECE8"/>
<path d="M7.75879 6.98013H5.74511V8.9584H7.75879V6.98013Z" fill="#FDECE8"/>
<path d="M7.75879 9.44128H5.74511V11.4199H7.75879V9.44128Z" fill="#FDECE8"/>
<path d="M7.75879 11.9028H5.74511V13.881H7.75879V11.9028Z" fill="#FDECE8"/>
<path d="M3.05831 0.321932V2.89738C3.05831 3.07509 3.20254 3.21932 3.38024 3.21932H4.34604C4.52374 3.21932 4.66797 3.07509 4.66797 2.89738V0.321932C4.66797 0.144225 4.52374 0 4.34604 0H3.38024C3.20254 0 3.05831 0.144225 3.05831 0.321932Z" fill="#E74111"/>
</g>
<defs>
<clipPath id="clip0_254_8882">
<rect width="16" height="16" fill="white" transform="matrix(-1 0 0 1 16 0)"/>
</clipPath>
</defs>
</svg>
