<svg width="20" height="20" viewBox="0 0 20 20" fill="none" xmlns="http://www.w3.org/2000/svg">
<path fill-rule="evenodd" clip-rule="evenodd" d="M19.5144 19.5128C18.8651 20.1624 17.797 20.1624 17.1477 19.5128L9.99542 12.3573L2.85359 19.5128C2.20433 20.1624 1.1362 20.1624 0.486943 19.5128C-0.162314 18.8633 -0.162314 17.7947 0.486943 17.1451L7.63924 10L0.486943 2.8549C-0.162314 2.20534 -0.162314 1.13672 0.486943 0.487166C1.1362 -0.162389 2.20433 -0.162389 2.85359 0.487166L9.99542 7.63227L17.1372 0.487166C17.7865 -0.162389 18.8546 -0.162389 19.5039 0.487166C20.1531 1.13672 20.1531 2.20534 19.5039 2.8549L12.3621 9.98952L19.5039 17.1346C20.1636 17.7947 20.1636 18.8528 19.5144 19.5128Z" fill="#E74111"/>
</svg>
