<svg width="20" height="20" viewBox="0 0 20 20" fill="none"
    xmlns="http://www.w3.org/2000/svg">
    <path d="M14.1667 20.0385H2.5C1.12167 20.0385 0 18.9168 0 17.5385V5.87177C0 4.49344 1.12167 3.37177 2.5 3.37177H9.16672C9.62753 3.37177 10 3.74515 10 4.2052C10 4.6651 9.62753 5.03848 9.16672 5.03848H2.5C2.03995 5.03848 1.66672 5.41263 1.66672 5.87177V17.5385C1.66672 17.9976 2.03995 18.3718 2.5 18.3718H14.1667C14.6266 18.3718 15 17.9976 15 17.5385V10.8718C15 10.4119 15.3725 10.0385 15.8333 10.0385C16.2941 10.0385 16.6667 10.4119 16.6667 10.8718V17.5385C16.6667 18.9168 15.545 20.0385 14.1667 20.0385Z" fill="#E74111"/>
    <path d="M14.4068 2.68604L7.81332 9.27936C7.75503 9.33765 7.71581 9.4118 7.69918 9.49176L7.11004 12.4385C7.08257 12.5751 7.12591 12.7159 7.22418 12.8151C7.30337 12.8943 7.41003 12.9367 7.51928 12.9367C7.54583 12.9367 7.57345 12.9343 7.60091 12.9285L10.5468 12.3394C10.6284 12.3226 10.7026 12.2835 10.7601 12.2251L17.3534 5.63174L14.4068 2.68604Z" fill="#FBBA00"/>
    <path d="M19.39 0.648521C18.5776 -0.164009 17.2559 -0.164009 16.4442 0.648521L15.2909 1.80178L18.2368 4.74764L19.39 3.59423C19.7834 3.20177 20.0001 2.6784 20.0001 2.12176C20.0001 1.56512 19.7834 1.04174 19.39 0.648521Z" fill="#FBBA00"/>
</svg>
