<svg width="30" height="24" viewBox="0 0 30 24" fill="none" xmlns="http://www.w3.org/2000/svg">
<path d="M1.90909 4.36364H6.27272C6.27272 5.56691 7.25127 6.54545 8.45454 6.54545H10.6364C11.8396 6.54545 12.8182 5.56691 12.8182 4.36364H28.0909C28.6931 4.36364 29.1818 3.876 29.1818 3.27273C29.1818 2.66945 28.6931 2.18182 28.0909 2.18182H12.8182C12.8182 0.978545 11.8396 0 10.6364 0H8.45454C7.25127 0 6.27272 0.978545 6.27272 2.18182H1.90909C1.3069 2.18182 0.818176 2.66945 0.818176 3.27273C0.818176 3.876 1.3069 4.36364 1.90909 4.36364Z" fill="#E74111"/>
<path d="M28.0909 10.9094H21.5454C21.5454 9.70608 20.5669 8.72754 19.3636 8.72754H17.1818C15.9785 8.72754 15 9.70608 15 10.9094H1.90909C1.3069 10.9094 0.818176 11.397 0.818176 12.0003C0.818176 12.6035 1.3069 13.0912 1.90909 13.0912H15C15 14.2944 15.9785 15.273 17.1818 15.273H19.3636C20.5669 15.273 21.5454 14.2944 21.5454 13.0912H28.0909C28.6931 13.0912 29.1818 12.6035 29.1818 12.0003C29.1818 11.397 28.6931 10.9094 28.0909 10.9094Z" fill="#FBBA00"/>
<path d="M28.0909 19.6364H12.8182C12.8182 18.4331 11.8396 17.4546 10.6364 17.4546H8.45454C7.25127 17.4546 6.27272 18.4331 6.27272 19.6364H1.90909C1.3069 19.6364 0.818176 20.124 0.818176 20.7273C0.818176 21.3306 1.3069 21.8182 1.90909 21.8182H6.27272C6.27272 23.0215 7.25127 24 8.45454 24H10.6364C11.8396 24 12.8182 23.0215 12.8182 21.8182H28.0909C28.6931 21.8182 29.1818 21.3306 29.1818 20.7273C29.1818 20.124 28.6931 19.6364 28.0909 19.6364Z" fill="#E74111"/>
</svg>
