<svg width="32" height="32" viewBox="0 0 32 32" fill="none" xmlns="http://www.w3.org/2000/svg">
<path d="M2 6H30C31.1045 6 32 6.89551 32 8C32 9.10449 31.1045 10 30 10H2C0.895508 10 0 9.10449 0 8C0 6.89551 0.895508 6 2 6Z" fill="#F04E23"/>
<path d="M2 14H30C31.1045 14 32 14.8955 32 16C32 17.1045 31.1045 18 30 18H2C0.895508 18 0 17.1045 0 16C0 14.8955 0.895508 14 2 14Z" fill="#F04E23"/>
<path d="M1.5625 22H23.4375C24.3004 22 25 22.8955 25 24C25 25.1045 24.3004 26 23.4375 26H1.5625C0.699615 26 0 25.1045 0 24C0 22.8955 0.699615 22 1.5625 22Z" fill="#FDB813"/>
</svg>
