<svg width="18" height="18" viewBox="0 0 18 18" fill="none" xmlns="http://www.w3.org/2000/svg">
<path d="M17.34 6.78503L11.651 1.09603C10.9471 0.395239 9.99431 0.00180054 9.00104 0.00180054C8.00777 0.00180054 7.05494 0.395239 6.35104 1.09603L0.658042 6.78503C0.448113 6.99364 0.281747 7.24189 0.168615 7.51537C0.0554826 7.78884 -0.00215875 8.08208 -0.000958187 8.37803V15.741C-0.000958187 16.3378 0.236095 16.9101 0.658052 17.332C1.08001 17.754 1.6523 17.991 2.24904 17.991H15.749C16.0447 17.991 16.3374 17.9328 16.6105 17.8196C16.8837 17.7064 17.1318 17.5405 17.3407 17.3313C17.5497 17.1222 17.7154 16.8739 17.8283 16.6007C17.9413 16.3275 17.9993 16.0347 17.999 15.739V8.37803C18.0002 8.08209 17.9425 7.78887 17.8294 7.5154C17.7163 7.24193 17.5499 6.99367 17.34 6.78503ZM11.249 16.485H6.74904V13.538C6.74904 12.9413 6.98609 12.369 7.40805 11.947C7.83001 11.5251 8.4023 11.288 8.99904 11.288C9.59578 11.288 10.1681 11.5251 10.59 11.947C11.012 12.369 11.249 12.9413 11.249 13.538V16.485ZM16.499 15.735C16.499 15.9339 16.42 16.1247 16.2794 16.2654C16.1387 16.406 15.948 16.485 15.749 16.485H12.749V13.538C12.749 12.5435 12.354 11.5896 11.6507 10.8864C10.9474 10.1831 9.9936 9.78803 8.99904 9.78803C8.00448 9.78803 7.05065 10.1831 6.34739 10.8864C5.64413 11.5896 5.24904 12.5435 5.24904 13.538V16.488H2.24904C2.05013 16.488 1.85936 16.409 1.71871 16.2684C1.57806 16.1277 1.49904 15.9369 1.49904 15.738V8.37803C1.49987 8.17931 1.5789 7.98891 1.71904 7.84803L7.40704 2.15803C7.82982 1.73722 8.40204 1.50098 8.99854 1.50098C9.59504 1.50098 10.1673 1.73722 10.59 2.15803L16.279 7.84803C16.4187 7.98842 16.4977 8.17801 16.499 8.37603V15.735Z" fill="#A1A5B7"/>
</svg>
