<svg width="20" height="16" viewBox="0 0 20 16" fill="none" xmlns="http://www.w3.org/2000/svg">
<path d="M12.5636 15.4364C10.0894 15.4364 7.78445 14.2109 6.39773 12.1584C6.11663 11.7424 6.22609 11.1773 6.6421 10.8962C7.05828 10.6152 7.62324 10.7245 7.90433 11.1406C8.95246 12.692 10.6942 13.6183 12.5636 13.6183C15.6615 13.6183 18.1818 11.0979 18.1818 8.00001C18.1818 4.90208 15.6615 2.38176 12.5636 2.38176C10.6887 2.38176 8.94406 3.31219 7.89675 4.87067C7.61656 5.28747 7.05183 5.39817 6.63511 5.11813C6.21843 4.83805 6.10765 4.27321 6.38765 3.85649C7.77339 1.79461 10.0821 0.563599 12.5636 0.563599C16.664 0.563599 20 3.89954 20 8.00001C20 12.1004 16.664 15.4364 12.5636 15.4364Z" fill="#F04E23"/>
<path d="M13.6362 7.09091H3.10383L4.27922 5.91555C4.63426 5.56052 4.63426 4.98493 4.27922 4.62993C3.92426 4.27497 3.34859 4.27497 2.99359 4.62993L0.266289 7.35716C0.264961 7.35848 0.263867 7.35993 0.262539 7.36126C0.243086 7.38094 0.224375 7.40145 0.206719 7.4229C0.20125 7.4295 0.196641 7.43661 0.191445 7.44333C0.178398 7.46005 0.165391 7.47684 0.153555 7.49446C0.149687 7.5004 0.146328 7.50669 0.142461 7.5127C0.130352 7.5318 0.118398 7.55095 0.107617 7.57095C0.105234 7.57532 0.103477 7.57997 0.101133 7.58438C0.0898437 7.60634 0.0789453 7.62852 0.0694922 7.65141C0.0682031 7.6545 0.0672656 7.65778 0.0658984 7.66095C0.0562109 7.6852 0.0470312 7.70981 0.0394141 7.73509C0.0383984 7.73848 0.0377734 7.74192 0.0367969 7.74532C0.0295312 7.77024 0.0229297 7.79532 0.0177734 7.82106C0.01625 7.82884 0.0155469 7.83677 0.0141797 7.84458C0.0104297 7.86598 0.00667969 7.88735 0.00449219 7.90923C0.0015625 7.93927 0 7.96958 0 8.00001C0 8.03044 0.0015625 8.06075 0.00453125 8.09079C0.00675781 8.11298 0.0105859 8.13462 0.0143359 8.15626C0.0156641 8.16376 0.0162109 8.17145 0.0177734 8.17891C0.0229687 8.20505 0.0297266 8.23056 0.0370312 8.25583C0.0379297 8.2588 0.0384375 8.26196 0.0394141 8.26493C0.0472266 8.29056 0.0564453 8.31559 0.0663672 8.34032C0.0674609 8.34298 0.0682422 8.34583 0.0693359 8.34848C0.0791016 8.37192 0.0901953 8.39462 0.101758 8.41696C0.10375 8.42091 0.105469 8.42501 0.1075 8.42895C0.118633 8.44962 0.131016 8.4695 0.143555 8.48919C0.146992 8.49454 0.149922 8.50016 0.153359 8.50536C0.165898 8.52407 0.179648 8.54192 0.193555 8.55962C0.197969 8.56532 0.201914 8.5713 0.206523 8.57688C0.225391 8.59985 0.245391 8.62192 0.266289 8.64294L2.99344 11.37C3.17094 11.5475 3.40363 11.6363 3.63629 11.6363C3.86894 11.6363 4.10164 11.5475 4.27906 11.37C4.6341 11.015 4.6341 10.4394 4.27906 10.0844L3.10371 8.90907H13.6361C14.1382 8.90907 14.5452 8.50204 14.5452 7.99997C14.5452 7.4979 14.1383 7.09091 13.6362 7.09091Z" fill="#FDB813"/>
</svg>
