<svg width="78" height="32" viewBox="0 0 78 32" fill="none" xmlns="http://www.w3.org/2000/svg">
<path d="M12.2579 26.4964H9.35574C6.76793 26.4964 4.56142 25.5581 2.73619 23.6814C0.910963 21.8046 -0.0011002 19.5345 9.95954e-07 16.8709C9.95954e-07 14.2085 0.912065 11.9384 2.73619 10.0605C4.56032 8.18267 6.76683 7.246 9.35574 7.25054C11.9435 7.25054 14.1501 8.18861 15.9753 10.0648C17.8005 11.9409 18.7123 14.2111 18.7106 16.8752V32H14.7009V16.7205C14.6729 15.2743 14.1498 14.0281 13.1317 12.9818C12.6354 12.471 12.0462 12.0658 11.3977 11.7894C10.7491 11.513 10.054 11.3707 9.35202 11.3707C8.65003 11.3707 7.95492 11.513 7.30638 11.7894C6.65785 12.0658 6.06861 12.471 5.57231 12.9818C4.82308 13.751 4.31263 14.7317 4.10565 15.7997C3.89868 16.8676 4.00449 17.9747 4.40968 18.9808C4.81488 19.9868 5.50121 20.8464 6.38172 21.4507C7.26223 22.055 8.29729 22.3768 9.35574 22.3754H12.2579V26.4964Z" fill="#E74111"/>
<path d="M33.391 26.1311C32.5274 26.3787 31.6346 26.5017 30.7382 26.4964C28.1504 26.4964 25.9441 25.5581 24.1195 23.6814C22.2948 21.8046 21.3835 19.5345 21.3857 16.8709C21.3857 14.2085 22.2978 11.9384 24.1219 10.0605C25.9461 8.18267 28.1515 7.246 30.7382 7.25054C33.326 7.25054 35.5325 8.18861 37.3577 10.0648C39.183 11.9409 40.095 14.2111 40.0939 16.8752V26.4964H36.0867V16.7248C36.0586 15.2786 35.5355 14.0323 34.5175 12.9861C34.0249 12.4588 33.4351 12.0378 32.7825 11.7479C32.1299 11.4579 31.4277 11.3048 30.7169 11.2975C30.0061 11.2902 29.301 11.4288 28.6429 11.7053C27.9848 11.9818 27.3869 12.3905 26.8842 12.9075C26.3815 13.4246 25.9841 14.0397 25.7153 14.7167C25.4464 15.3937 25.3116 16.1191 25.3185 16.8504C25.3255 17.5817 25.4741 18.3042 25.7558 18.9757C26.0374 19.6471 26.4465 20.254 26.9589 20.7609C27.7897 21.6106 28.8672 22.1583 30.0279 22.3212C31.1886 22.484 32.3693 22.2531 33.391 21.6633V26.1311Z" fill="#E74111"/>
<path d="M52.1215 11.3716C50.7039 11.3721 49.3445 11.9516 48.3421 12.9828C47.3396 14.014 46.7762 15.4125 46.7755 16.8709V26.4964H42.7666V16.8709C42.7666 14.2085 43.6784 11.9384 45.502 10.0605C47.3255 8.18267 49.5321 7.246 52.1215 7.25054V11.3716Z" fill="#E74111"/>
<path d="M64.2365 26.1311C63.3729 26.3786 62.4801 26.5016 61.5837 26.4964C58.9959 26.4964 56.7894 25.5581 54.9641 23.6814C53.1389 21.8046 52.2271 19.5345 52.2288 16.8709C52.2288 14.2085 53.1405 11.9384 54.9641 10.0605C56.7877 8.18267 58.9942 7.246 61.5837 7.25054C64.1715 7.25054 66.378 8.18861 68.2032 10.0648C70.0285 11.9409 70.9405 14.2097 70.9394 16.8709V26.4964H66.9297V16.7248C66.9016 15.2786 66.3785 14.0323 65.3605 12.9861C64.8707 12.447 64.2805 12.0148 63.625 11.7153C62.9695 11.4158 62.2621 11.2551 61.545 11.2428C60.8278 11.2304 60.1156 11.3667 59.4507 11.6435C58.7859 11.9203 58.1819 12.3319 57.6749 12.8538C57.1679 13.3757 56.7681 13.9973 56.4995 14.6815C56.2308 15.3657 56.0988 16.0985 56.1112 16.8363C56.1236 17.5741 56.2801 18.3018 56.5716 18.9761C56.8631 19.6503 57.2834 20.2573 57.8077 20.7609C58.6385 21.6106 59.716 22.1583 60.8767 22.3212C62.0374 22.484 63.2181 22.2531 64.2398 21.6633L64.2365 26.1311Z" fill="#E74111"/>
<path d="M61.6011 0V4.0973C63.2315 4.0973 64.846 4.4277 66.3523 5.06963C67.8587 5.71157 69.2274 6.65247 70.3803 7.83862C71.5332 9.02476 72.4477 10.4329 73.0717 11.9827C73.6956 13.5325 74.0168 15.1935 74.0168 16.871H78C78 7.55306 70.6578 0 61.6011 0Z" fill="#FBBA00"/>
</svg>
