<svg width="18" height="18" viewBox="0 0 18 18" fill="none" xmlns="http://www.w3.org/2000/svg">
<path d="M6.74902 10.4998H11.249C11.4479 10.4998 11.6387 10.4208 11.7794 10.2802C11.92 10.1395 11.999 9.94876 11.999 9.74985C11.999 9.55094 11.92 9.36017 11.7794 9.21952C11.6387 9.07887 11.4479 8.99985 11.249 8.99985H6.74902C6.55011 8.99985 6.35935 9.07887 6.21869 9.21952C6.07804 9.36017 5.99902 9.55094 5.99902 9.74985C5.99902 9.94876 6.07804 10.1395 6.21869 10.2802C6.35935 10.4208 6.55011 10.4998 6.74902 10.4998Z" fill="#A1A5B7"/>
<path d="M14.249 -0.000152588H3.74902C2.75479 0.000906238 1.80157 0.396334 1.09854 1.09937C0.39551 1.8024 8.22636e-05 2.75561 -0.000976562 3.74985L-0.000976562 4.49985C-0.000828744 4.81624 0.0660448 5.12904 0.195278 5.41783C0.324512 5.70663 0.5132 5.96492 0.749023 6.17585V14.2498C0.750346 15.244 1.14586 16.1971 1.84883 16.9C2.55181 17.603 3.50487 17.9985 4.49902 17.9998H13.499C14.4932 17.9985 15.4462 17.603 16.1492 16.9C16.8522 16.1971 17.2477 15.244 17.249 14.2498V6.17485C17.4847 5.96403 17.6733 5.7059 17.8026 5.41729C17.9318 5.12868 17.9987 4.81607 17.999 4.49985V3.74985C17.9977 2.75569 17.6022 1.80263 16.8992 1.09966C16.1962 0.396683 15.2432 0.00117031 14.249 -0.000152588V-0.000152588ZM1.49902 3.74985C1.49902 3.15311 1.73608 2.58081 2.15803 2.15886C2.57999 1.7369 3.15229 1.49985 3.74902 1.49985H14.249C14.8458 1.49985 15.4181 1.7369 15.84 2.15886C16.262 2.58081 16.499 3.15311 16.499 3.74985V4.49985C16.499 4.69876 16.42 4.88953 16.2794 5.03018C16.1387 5.17083 15.9479 5.24985 15.749 5.24985H2.24902C2.05011 5.24985 1.85935 5.17083 1.71869 5.03018C1.57804 4.88953 1.49902 4.69876 1.49902 4.49985V3.74985ZM15.749 14.2498C15.749 14.8466 15.512 15.4189 15.09 15.8408C14.6681 16.2628 14.0958 16.4998 13.499 16.4998H4.49902C3.90229 16.4998 3.32999 16.2628 2.90803 15.8408C2.48608 15.4189 2.24902 14.8466 2.24902 14.2498V6.74985H15.749V14.2498Z" fill="#A1A5B7"/>
</svg>
