<svg width="21" height="33" viewBox="0 0 21 33" fill="none" xmlns="http://www.w3.org/2000/svg">
<path d="M10.286 0.877998C7.29 0.877998 4.896 1.662 3.104 3.23C1.284 4.798 0.373999 7.01 0.373999 9.866C0.373999 12.498 1.242 14.556 2.978 16.04C4.686 17.496 6.954 18.238 9.782 18.266L9.992 21.416H16.292L16.502 13.604H13.982C11.826 13.604 10.188 13.338 9.068 12.806C7.92 12.274 7.346 11.308 7.346 9.908C7.346 8.928 7.612 8.158 8.144 7.598C8.676 7.038 9.418 6.758 10.37 6.758C11.378 6.758 12.162 7.052 12.722 7.64C13.282 8.2 13.562 8.97 13.562 9.95H20.324C20.38 8.242 20.03 6.702 19.274 5.33C18.49 3.958 17.342 2.88 15.83 2.096C14.29 1.284 12.442 0.877998 10.286 0.877998ZM13.058 32.336C14.318 32.336 15.354 31.972 16.166 31.244C16.95 30.488 17.342 29.564 17.342 28.472C17.342 27.352 16.95 26.414 16.166 25.658C15.354 24.902 14.318 24.524 13.058 24.524C11.826 24.524 10.818 24.902 10.034 25.658C9.222 26.414 8.816 27.352 8.816 28.472C8.816 29.564 9.222 30.488 10.034 31.244C10.818 31.972 11.826 32.336 13.058 32.336Z" fill="#E74111"/>
</svg>
