<svg width="18" height="19" viewBox="0 0 18 19" fill="none"
    xmlns="http://www.w3.org/2000/svg">
    <path d="M17.306 5.25985C17.1222 5.25985 16.946 5.18684 16.816 5.05687C16.686 4.92691 16.613 4.75064 16.613 4.56684V1.93885C16.6127 1.79226 16.5544 1.65176 16.4507 1.54811C16.3471 1.44446 16.2066 1.38611 16.06 1.38585H13.432C13.2482 1.38585 13.0719 1.31284 12.942 1.18287C12.812 1.05291 12.739 0.876643 12.739 0.692848C12.739 0.509053 12.812 0.332786 12.942 0.202824C13.0719 0.0728609 13.2482 -0.000152588 13.432 -0.000152588H16.06C16.5741 0.000376859 17.067 0.204833 17.4305 0.568352C17.794 0.93187 17.9985 1.42475 17.999 1.93885V4.56684C17.999 4.65785 17.9811 4.74797 17.9463 4.83205C17.9114 4.91613 17.8604 4.99252 17.7961 5.05687C17.7317 5.12122 17.6553 5.17227 17.5712 5.2071C17.4871 5.24192 17.397 5.25985 17.306 5.25985Z" fill="#E54111"/>
    <path d="M0.692024 5.25985C0.508229 5.25985 0.331962 5.18684 0.202 5.05687C0.072037 4.92691 -0.000976562 4.75064 -0.000976562 4.56684V1.93885C-0.000447116 1.42475 0.204009 0.93187 0.567528 0.568352C0.931046 0.204833 1.42393 0.000376859 1.93802 -0.000152588H4.56602C4.74982 -0.000152588 4.92609 0.0728609 5.05605 0.202824C5.18601 0.332786 5.25902 0.509053 5.25902 0.692848C5.25902 0.876643 5.18601 1.05291 5.05605 1.18287C4.92609 1.31284 4.74982 1.38585 4.56602 1.38585H1.93802C1.79144 1.38611 1.65094 1.44446 1.54729 1.54811C1.44364 1.65176 1.38529 1.79226 1.38503 1.93885V4.56684C1.38503 4.75064 1.31201 4.92691 1.18205 5.05687C1.05209 5.18684 0.875819 5.25985 0.692024 5.25985Z" fill="#E54111"/>
    <path d="M4.56602 17.9998H1.93802C1.42393 17.9993 0.931046 17.7949 0.567528 17.4313C0.204009 17.0678 -0.000447116 16.5749 -0.000976562 16.0609V13.4328C-0.000976562 13.249 0.072037 13.0728 0.202 12.9428C0.331962 12.8128 0.508229 12.7398 0.692024 12.7398C0.875819 12.7398 1.05209 12.8128 1.18205 12.9428C1.31201 13.0728 1.38503 13.249 1.38503 13.4328V16.0658C1.38529 16.2124 1.44364 16.3529 1.54729 16.4566C1.65094 16.5602 1.79144 16.6186 1.93802 16.6188H4.56602C4.74982 16.6188 4.92609 16.6918 5.05605 16.8218C5.18601 16.9518 5.25902 17.128 5.25902 17.3118C5.25902 17.4956 5.18601 17.6719 5.05605 17.8018C4.92609 17.9318 4.74982 18.0049 4.56602 18.0049V17.9998Z" fill="#E54111"/>
    <path d="M16.06 17.9998H13.432C13.2482 17.9998 13.0719 17.9268 12.942 17.7969C12.812 17.6669 12.739 17.4906 12.739 17.3068C12.739 17.123 12.812 16.9468 12.942 16.8168C13.0719 16.6868 13.2482 16.6138 13.432 16.6138H16.06C16.2066 16.6136 16.3471 16.5552 16.4507 16.4516C16.5544 16.3479 16.6127 16.2074 16.613 16.0609V13.4328C16.613 13.249 16.686 13.0728 16.816 12.9428C16.946 12.8128 17.1222 12.7398 17.306 12.7398C17.4898 12.7398 17.6661 12.8128 17.7961 12.9428C17.926 13.0728 17.999 13.249 17.999 13.4328V16.0658C17.9972 16.5791 17.7921 17.0707 17.4287 17.4331C17.0654 17.7955 16.5733 17.9993 16.06 17.9998Z" fill="#E54111"/>
    <path d="M6.83107 7.94084H4.19907C3.90529 7.94058 3.62361 7.82376 3.41588 7.61603C3.20815 7.40829 3.09133 7.12662 3.09106 6.83284V4.20184C3.09159 3.90815 3.20849 3.62664 3.41617 3.41896C3.62384 3.21128 3.90537 3.09437 4.19907 3.09384H6.83107C7.12477 3.09437 7.40628 3.21128 7.61395 3.41896C7.82163 3.62664 7.93854 3.90815 7.93907 4.20184V6.83284C7.93881 7.12662 7.82198 7.40829 7.61424 7.61603C7.40651 7.82376 7.12485 7.94058 6.83107 7.94084ZM4.47707 6.55484H6.55406V4.47884H4.47707V6.55484Z" fill="#E54111"/>
    <path d="M6.83107 14.9079H4.19907C3.90529 14.9076 3.62361 14.7908 3.41588 14.583C3.20815 14.3753 3.09133 14.0936 3.09106 13.7999V11.1678C3.09133 10.8741 3.20815 10.5924 3.41588 10.3847C3.62361 10.1769 3.90529 10.0601 4.19907 10.0598H6.83107C7.12485 10.0601 7.40651 10.1769 7.61424 10.3847C7.82198 10.5924 7.93881 10.8741 7.93907 11.1678V13.7989C7.93907 14.0928 7.82236 14.3747 7.61459 14.5827C7.40683 14.7906 7.12502 14.9076 6.83107 14.9079ZM4.47707 13.5219H6.55406V11.4459H4.47707V13.5219Z" fill="#E54111"/>
    <path d="M13.7981 14.9078H11.1671C10.8733 14.9076 10.5916 14.7908 10.3839 14.583C10.1762 14.3753 10.0593 14.0936 10.0591 13.7998V11.1689C10.0593 10.8751 10.1762 10.5934 10.3839 10.3857C10.5916 10.1779 10.8733 10.0611 11.1671 10.0609H13.7981C14.0918 10.0614 14.3733 10.1783 14.581 10.386C14.7887 10.5936 14.9056 10.8752 14.9061 11.1689V13.7998C14.9058 14.0936 14.789 14.3753 14.5813 14.583C14.3735 14.7908 14.0919 14.9076 13.7981 14.9078ZM11.4441 13.5219H13.5171V11.4458H11.4401L11.4441 13.5219Z" fill="#E54111"/>
    <path d="M13.7981 7.94084H11.1671C10.8733 7.94058 10.5916 7.82376 10.3839 7.61603C10.1762 7.40829 10.0593 7.12662 10.0591 6.83284V4.20184C10.0596 3.90815 10.1765 3.62664 10.3842 3.41896C10.5919 3.21128 10.8734 3.09437 11.1671 3.09384H13.7981C14.0918 3.09437 14.3733 3.21128 14.581 3.41896C14.7887 3.62664 14.9056 3.90815 14.9061 4.20184V6.83284C14.9058 7.12662 14.789 7.40829 14.5813 7.61603C14.3735 7.82376 14.0919 7.94058 13.7981 7.94084ZM11.4441 6.55484H13.5171V4.47884H11.4401L11.4441 6.55484Z" fill="#E54111"/>
</svg>
