<svg width="16" height="16" viewBox="0 0 16 16" fill="none" xmlns="http://www.w3.org/2000/svg">
<g clip-path="url(#clip0_2551_18212)">
<path d="M12.5578 3.00676L11.1319 4.67521C10.3131 3.90364 9.21095 3.42989 8.00001 3.42989C5.48031 3.42989 3.42999 5.48021 3.42999 7.99991C3.42999 8.10147 3.43374 8.20241 3.4403 8.30241H4.45187C4.78968 8.30241 4.97031 8.70022 4.74843 8.9546L3.87218 9.95961L2.42311 11.6221L2.01936 11.159L0.0977881 8.9546C-0.1244 8.70022 0.0565379 8.30241 0.394352 8.30241H1.24623C1.24186 8.2021 1.23936 8.10116 1.23936 7.99991C1.23936 6.19396 1.94248 4.49615 3.21936 3.21927C4.49624 1.94239 6.19406 1.23926 8.00001 1.23926C9.70283 1.23926 11.3094 1.86489 12.5578 3.00676Z" fill="#E74111"/>
<path d="M15.6057 8.32068H14.7532C14.675 10.006 13.9816 11.5791 12.7806 12.7804C11.5038 14.0573 9.80595 14.7604 8 14.7604C6.44562 14.7604 4.97155 14.2391 3.77655 13.2794L5.20281 11.611C5.97656 12.2116 6.94719 12.5698 8 12.5698C10.4119 12.5698 12.3931 10.6913 12.5585 8.32068H11.5481C11.2103 8.32068 11.0297 7.92318 11.2516 7.66849L12.3035 6.46192L13.5769 5.00098L14.4691 6.02442L15.9022 7.66849C16.1244 7.92318 15.9435 8.32068 15.6057 8.32068Z" fill="#F8C6B8"/>
<path d="M11.1319 4.6752C10.3131 3.90363 9.21094 3.42988 8 3.42988V1.23926C9.70281 1.23926 11.3094 1.86488 12.5578 3.00676L11.1319 4.6752Z" fill="#F8C6B8"/>
<path d="M15.6057 8.32068H14.7532C14.675 10.006 13.9816 11.5791 12.7806 12.7804C11.5038 14.0573 9.80594 14.7604 8 14.7604V12.5698C10.4119 12.5698 12.3931 10.6913 12.5585 8.32068H11.5481C11.2103 8.32068 11.0297 7.92318 11.2516 7.66849L12.3035 6.46192L13.5769 5.00098L14.4691 6.02442L15.9022 7.66849C16.1244 7.92318 15.9435 8.32068 15.6057 8.32068Z" fill="#E74111"/>
</g>
<defs>
<clipPath id="clip0_2551_18212">
<rect width="16" height="16" fill="white"/>
</clipPath>
</defs>
</svg>
