<svg width="24" height="24" viewBox="0 0 24 24" fill="none" xmlns="http://www.w3.org/2000/svg">
<path d="M3.24 3.72C5.88 0.959997 9.72 -0.480003 13.56 0.119997C16.68 0.479997 19.56 2.28 21.6 5.16V2.4H24V9.6H16.8V7.2H20.16L19.8 6.72C18.12 4.32 15.72 2.76 13.2 2.52C10.2 2.16 7.08 3.24 4.92 5.4C1.44 9 1.44 15 4.92 18.6C6.72 20.52 9.12 21.6 11.76 21.6C14.4 21.6 16.8 20.64 18.72 18.84L20.4 20.52C18.24 22.8 15.24 24 12 24H11.88C8.64 24 5.52 22.68 3.36 20.28C-1.08 15.72 -1.08 8.28 3.24 3.72V3.72Z" fill="#E74111"/>
</svg>
