<svg width="24" height="24" viewBox="0 0 24 24" fill="none" xmlns="http://www.w3.org/2000/svg">
<g clip-path="url(#clip0_1194_11222)">
<path d="M0.619547 23.381C0.219984 22.9815 0 22.4503 0 21.8853C0 21.3203 0.219984 20.7891 0.619547 20.3896L16.0818 4.92736C16.3563 4.65277 16.8015 4.65282 17.0761 4.92736L19.0732 6.92438C19.2051 7.05624 19.2792 7.23507 19.2792 7.42154C19.2792 7.608 19.2051 7.78683 19.0732 7.91869L3.61092 23.381C3.19856 23.7933 2.65687 23.9995 2.11523 23.9995C1.57359 23.9995 1.03191 23.7933 0.619547 23.381Z" fill="#E74111"/>
<path d="M14.8242 18.3521C19.8919 18.3521 24 14.2439 24 9.1763C24 4.10866 19.8919 0.000518799 14.8242 0.000518799C9.75657 0.000518799 5.64844 4.10866 5.64844 9.1763C5.64844 14.2439 9.75657 18.3521 14.8242 18.3521Z" fill="#FBBA00"/>
<path d="M14.8242 15.5279C18.3321 15.5279 21.1758 12.6842 21.1758 9.1763C21.1758 5.66843 18.3321 2.82474 14.8242 2.82474C11.3163 2.82474 8.47266 5.66843 8.47266 9.1763C8.47266 12.6842 11.3163 15.5279 14.8242 15.5279Z" fill="#FDECE8"/>
</g>
<defs>
<clipPath id="clip0_1194_11222">
<rect width="24" height="24" fill="white"/>
</clipPath>
</defs>
</svg>
