<svg width="24" height="23" viewBox="0 0 24 23" fill="none" xmlns="http://www.w3.org/2000/svg">
<path d="M19.531 4H8.21973C7.95715 4 7.75098 4.20618 7.75098 4.46875V6.34351C7.75098 6.60608 7.95715 6.81226 8.21973 6.81226H19.531C19.7936 6.81226 19.9998 6.60608 19.9998 6.34351V4.46875C19.9998 4.20618 19.7936 4 19.531 4Z" fill="#E74111"/>
<path d="M16.7189 7.74963H8.21973C7.95715 7.74963 7.75098 7.95581 7.75098 8.21838V10.0931C7.75098 10.3556 7.95715 10.5619 8.21973 10.5619H16.7189C16.9813 10.5619 17.1875 10.3556 17.1875 10.0931V8.21838C17.1875 7.95581 16.9813 7.74963 16.7189 7.74963Z" fill="#E74111"/>
<path d="M13.4066 11.4993H8.21973C7.95715 11.4993 7.75098 11.7054 7.75098 11.968V13.8428C7.75098 14.1052 7.95715 14.3115 8.21973 14.3115H13.4066C13.6692 14.3115 13.8754 14.1052 13.8754 13.8428V11.968C13.8754 11.7054 13.6692 11.4993 13.4066 11.4993Z" fill="#E74111"/>
<path d="M7.69493 16.4301C7.61058 16.28 7.45128 16.1863 7.28246 16.1863H6.81383V4.46875C6.81383 4.20618 6.60765 4 6.34508 4H5.4077C5.14525 4 4.93895 4.20618 4.93895 4.46875V16.1863H4.47032C4.30162 16.1863 4.1422 16.28 4.05785 16.4301C3.9735 16.5894 3.98277 16.7675 4.07665 16.9175L5.48277 18.7922C5.5764 18.9235 5.71703 18.9985 5.87645 18.9985C6.03575 18.9985 6.17638 18.9235 6.27013 18.7922L7.67626 16.9175C7.77001 16.7675 7.77941 16.5894 7.69493 16.4301V16.4301Z" fill="#E74111"/>
</svg>
