<svg width="16" height="13" viewBox="0 0 16 13" fill="none" xmlns="http://www.w3.org/2000/svg">
<path d="M10.9634 12.4739H0.843336C0.337334 12.4739 0 12.1366 0 11.6306C0 11.1246 0.337334 10.7872 0.843336 10.7872H10.9634C11.4694 10.7872 11.8067 11.1246 11.8067 11.6306C11.8067 12.1366 11.4694 12.4739 10.9634 12.4739Z" fill="#E74111"/>
<path d="M8.43336 8.25717H0.843336C0.337334 8.25717 0 7.91983 0 7.41383C0 6.90783 0.337334 6.5705 0.843336 6.5705H8.43336C8.93936 6.5705 9.27669 6.90783 9.27669 7.41383C9.27669 7.91983 8.93936 8.25717 8.43336 8.25717Z" fill="#E74111"/>
<path d="M5.90335 4.04019H0.843336C0.337334 4.04019 0 3.70285 0 3.19685C0 2.69085 0.337334 2.35352 0.843336 2.35352H5.90335C6.40935 2.35352 6.74669 2.69085 6.74669 3.19685C6.74669 3.70285 6.40935 4.04019 5.90335 4.04019Z" fill="#E74111"/>
<path d="M12.649 9.10035C12.143 9.10035 11.8057 8.76302 11.8057 8.25701V1.51033C11.8057 1.00433 12.143 0.666992 12.649 0.666992C13.155 0.666992 13.4923 1.00433 13.4923 1.51033V8.25701C13.4923 8.76302 13.155 9.10035 12.649 9.10035Z" fill="#E74111"/>
<path d="M15.1797 4.88367C14.9267 4.88367 14.758 4.79934 14.5894 4.63067L12.6497 2.691L10.71 4.63067C10.3727 4.968 9.8667 4.968 9.52937 4.63067C9.19203 4.29334 9.19203 3.78733 9.52937 3.45L12.0594 0.919993C12.3967 0.582659 12.9027 0.582659 13.24 0.919993L15.7701 3.45C16.1074 3.78733 16.1074 4.29334 15.7701 4.63067C15.6014 4.79934 15.4327 4.88367 15.1797 4.88367Z" fill="#E74111"/>
</svg>
