<svg width="16" height="16" viewBox="0 0 16 16" fill="none" xmlns="http://www.w3.org/2000/svg">
<g clip-path="url(#clip0_254_8885)">
<path d="M12.5578 3.00686L11.1319 4.6753C10.3131 3.90373 9.21095 3.42998 8.00001 3.42998C5.48031 3.42998 3.42999 5.4803 3.42999 8C3.42999 8.10156 3.43374 8.2025 3.4403 8.3025H4.45187C4.78968 8.3025 4.97031 8.70032 4.74843 8.95469L3.87218 9.9597L2.42311 11.6222L2.01936 11.1591L0.0977881 8.95469C-0.1244 8.70032 0.0565379 8.3025 0.394352 8.3025H1.24623C1.24186 8.20219 1.23936 8.10125 1.23936 8C1.23936 6.19406 1.94248 4.49624 3.21936 3.21936C4.49624 1.94248 6.19406 1.23935 8.00001 1.23935C9.70283 1.23935 11.3094 1.86498 12.5578 3.00686Z" fill="#E74111"/>
<path d="M15.6057 8.32095H14.7532C14.6751 10.0063 13.9817 11.5794 12.7807 12.7807C11.5038 14.0575 9.80601 14.7607 8.00007 14.7607C6.44568 14.7607 4.97162 14.2394 3.77661 13.2797L5.20287 11.6113C5.97662 12.2119 6.94725 12.57 8.00007 12.57C10.4119 12.57 12.3932 10.6916 12.5585 8.32095H11.5482C11.2104 8.32095 11.0298 7.92345 11.2516 7.66876L12.3035 6.46219L13.577 5.00125L14.4692 6.02469L15.9023 7.66876C16.1245 7.92345 15.9435 8.32095 15.6057 8.32095Z" fill="#F8C6B8"/>
<path d="M11.1319 4.67529C10.3131 3.90372 9.21094 3.42997 8 3.42997V1.23935C9.70281 1.23935 11.3094 1.86497 12.5578 3.00685L11.1319 4.67529Z" fill="#F8C6B8"/>
<path d="M15.6057 8.32095H14.7532C14.675 10.0063 13.9816 11.5794 12.7806 12.7807C11.5038 14.0575 9.80594 14.7607 8 14.7607V12.57C10.4119 12.57 12.3931 10.6916 12.5585 8.32095H11.5481C11.2103 8.32095 11.0297 7.92345 11.2516 7.66876L12.3035 6.46219L13.5769 5.00125L14.4691 6.02469L15.9022 7.66876C16.1244 7.92345 15.9435 8.32095 15.6057 8.32095Z" fill="#E74111"/>
</g>
<defs>
<clipPath id="clip0_254_8885">
<rect width="16" height="16" fill="white"/>
</clipPath>
</defs>
</svg>
