<svg width="64" height="64" viewBox="0 0 64 64" fill="none" xmlns="http://www.w3.org/2000/svg">
<g clip-path="url(#clip0_1283_492)">
<path d="M50.2398 18.6901C48.0148 7.87728 37.4455 0.915513 26.6327 3.14049C17.3738 5.04577 10.7156 13.1765 10.6732 22.6291C10.6732 23.0795 10.6918 23.5406 10.7318 24.0283C4.1449 24.7255 -0.629616 30.6304 0.0676099 37.2172C0.713865 43.3225 5.86629 47.954 12.0057 47.948H13.4049C13.3729 47.5056 13.3383 47.0658 13.3383 46.6154C13.3383 37.048 21.0942 29.2919 30.6617 29.2919C40.2293 29.2919 47.9851 37.048 47.9851 46.6154C47.9851 47.0657 47.9505 47.5055 47.9185 47.948H49.3177C57.4043 47.9701 63.9778 41.4324 63.9999 33.3457C64.0211 25.5863 57.9853 19.1576 50.2398 18.6901Z" fill="#E74111"/>
<path d="M30.6617 61.2736C38.7572 61.2736 45.3199 54.7109 45.3199 46.6154C45.3199 38.5199 38.7572 31.9572 30.6617 31.9572C22.5661 31.9572 16.0034 38.5199 16.0034 46.6154C16.0034 54.7109 22.5661 61.2736 30.6617 61.2736Z" fill="#FBBA00"/>
<path d="M30.6617 55.9434C29.9258 55.9434 29.3291 55.3468 29.3291 54.6108V38.62C29.3291 37.884 29.9258 37.2874 30.6617 37.2874C31.3977 37.2874 31.9943 37.884 31.9943 38.62V54.6108C31.9942 55.3468 31.3977 55.9434 30.6617 55.9434Z" fill="#FAFAFA"/>
<path d="M35.9917 45.2835C35.6381 45.2841 35.2986 45.1442 35.0483 44.8943L30.6614 40.5048L26.2745 44.8943C25.7452 45.4057 24.9016 45.3909 24.3902 44.8616C23.8914 44.3451 23.8914 43.5265 24.3902 43.01L29.7206 37.6797C30.2409 37.1595 31.0844 37.1595 31.6049 37.6797L36.9352 43.01C37.4548 43.5312 37.4535 44.375 36.9322 44.8946C36.6826 45.1436 36.3444 45.2834 35.9917 45.2835Z" fill="#FAFAFA"/>
</g>
<defs>
<clipPath id="clip0_1283_492">
<rect width="64" height="64" fill="white"/>
</clipPath>
</defs>
</svg>
