<svg width="20" height="20" viewBox="0 0 20 20" fill="none" xmlns="http://www.w3.org/2000/svg">
<path d="M14.6747 4.81674C14.6747 6.14044 14.2 7.28622 13.2635 8.22281C12.3271 9.15924 11.1812 9.63394 9.85745 9.63394H9.85516C8.53314 9.63348 7.38797 9.15878 6.45154 8.22281C5.51495 7.28622 5.04041 6.14044 5.04041 4.81674C5.04041 3.4935 5.51495 2.34756 6.45154 1.41113C7.38751 0.475006 8.53268 0.000457766 9.85516 0H9.85745C11.1807 0 12.3266 0.474701 13.2635 1.41113C14.2 2.34756 14.6747 3.4935 14.6747 4.81674Z" fill="#FBBA00"/>
<path d="M18.3269 16.5604C18.3269 17.6047 17.9947 18.4502 17.3404 19.0729C16.6937 19.6883 15.8385 20 14.7986 20H5.16846C4.12857 20 3.27332 19.6883 2.62711 19.0729C1.97235 18.4497 1.64062 17.6044 1.64062 16.5604C1.64062 16.1588 1.6539 15.7614 1.68045 15.3793C1.70746 14.9887 1.76208 14.5636 1.84265 14.1151C1.92383 13.663 2.0282 13.2356 2.15317 12.845C2.28287 12.4406 2.45834 12.0418 2.67548 11.6597C2.901 11.2631 3.16589 10.9177 3.46283 10.6332C3.77411 10.3355 4.15466 10.0964 4.59457 9.92218C5.03296 9.74884 5.51895 9.66095 6.03897 9.66095C6.24298 9.66095 6.44058 9.74442 6.82144 9.99252C7.05978 10.148 7.33444 10.325 7.63763 10.5188C7.89948 10.6857 8.25409 10.8423 8.69247 10.9837C9.07776 11.1084 9.46884 11.178 9.85519 11.19C9.89777 11.1916 9.94034 11.1923 9.98291 11.1923C10.412 11.1923 10.8459 11.122 11.2738 10.9837C11.7122 10.8423 12.0673 10.6857 12.3289 10.5188C12.6353 10.323 12.91 10.1462 13.1448 9.99298C13.526 9.74442 13.7233 9.66095 13.9278 9.66095C14.4473 9.66095 14.9333 9.74884 15.372 9.92218C15.8119 10.0964 16.1925 10.336 16.5034 10.6332C16.8008 10.9177 17.0657 11.2631 17.2911 11.6597C17.5084 12.0421 17.6842 12.4406 17.8134 12.8445C17.9385 13.2356 18.0432 13.663 18.1244 14.1154C18.2045 14.5644 18.2593 14.9895 18.2861 15.379C18.3131 15.7599 18.3264 16.1572 18.3269 16.5604Z" fill="#E74111"/>
</svg>
