<svg width="20" height="21" viewBox="0 0 20 21" fill="none" xmlns="http://www.w3.org/2000/svg">
<path d="M17.1131 11.5765H15.5664C15.7241 12.0081 15.8102 12.4739 15.8102 12.9595V18.8052C15.8102 19.0076 15.775 19.2019 15.7109 19.3826H18.2679C19.2231 19.3826 20.0002 18.6055 20.0002 17.6503V14.4636C20.0002 12.8716 18.7051 11.5765 17.1131 11.5765Z" fill="#FBBA00"/>
<path d="M4.19004 12.9595C4.19004 12.4739 4.27617 12.0082 4.43383 11.5765H2.88711C1.29516 11.5765 0 12.8717 0 14.4636V17.6504C0 18.6055 0.77707 19.3827 1.73227 19.3827H4.28937C4.22527 19.2019 4.19004 19.0076 4.19004 18.8052V12.9595Z" fill="#FBBA00"/>
<path d="M11.7679 10.0724H8.23184C6.63988 10.0724 5.34473 11.3675 5.34473 12.9595V18.8052C5.34473 19.1241 5.60324 19.3826 5.92215 19.3826H14.0775C14.3964 19.3826 14.655 19.1241 14.655 18.8052V12.9595C14.655 11.3675 13.3598 10.0724 11.7679 10.0724Z" fill="#E74111"/>
<path d="M10.0004 2.41709C8.0859 2.41709 6.52832 3.97467 6.52832 5.88924C6.52832 7.18787 7.24508 8.32205 8.30359 8.91752C8.80566 9.19994 9.38449 9.36135 10.0004 9.36135C10.6164 9.36135 11.1952 9.19994 11.6973 8.91752C12.7558 8.32205 13.4725 7.18783 13.4725 5.88924C13.4725 3.97471 11.915 2.41709 10.0004 2.41709Z" fill="#E74111"/>
<path d="M3.90332 5.65339C2.47148 5.65339 1.30664 6.81823 1.30664 8.25007C1.30664 9.6819 2.47148 10.8467 3.90332 10.8467C4.26652 10.8467 4.61238 10.7715 4.92656 10.6363C5.46977 10.4024 5.91766 9.98843 6.1948 9.46987C6.38934 9.10593 6.5 8.69073 6.5 8.25007C6.5 6.81827 5.33516 5.65339 3.90332 5.65339Z" fill="#FBBA00"/>
<path d="M16.0967 5.65339C14.6648 5.65339 13.5 6.81823 13.5 8.25007C13.5 8.69077 13.6107 9.10597 13.8052 9.46987C14.0823 9.98847 14.5302 10.4025 15.0734 10.6363C15.3876 10.7715 15.7335 10.8467 16.0967 10.8467C17.5285 10.8467 18.6934 9.6819 18.6934 8.25007C18.6934 6.81823 17.5285 5.65339 16.0967 5.65339Z" fill="#FBBA00"/>
</svg>
