<svg width="18" height="18" viewBox="0 0 18 18" fill="none" xmlns="http://www.w3.org/2000/svg">
<path d="M5.24902 -0.000152588H2.99902C2.20337 -0.000152588 1.44031 0.315918 0.877703 0.878527C0.315094 1.44114 -0.000976562 2.2042 -0.000976562 2.99985L-0.000976562 5.24985C-0.000976562 6.0455 0.315094 6.80856 0.877703 7.37117C1.44031 7.93378 2.20337 8.24985 2.99902 8.24985H5.24902C6.04467 8.24985 6.80773 7.93378 7.37034 7.37117C7.93295 6.80856 8.24902 6.0455 8.24902 5.24985V2.99985C8.24902 2.2042 7.93295 1.44114 7.37034 0.878527C6.80773 0.315918 6.04467 -0.000152588 5.24902 -0.000152588V-0.000152588ZM6.74902 5.24985C6.74902 5.64767 6.59099 6.0292 6.30968 6.31051C6.02838 6.59181 5.64685 6.74985 5.24902 6.74985H2.99902C2.6012 6.74985 2.21967 6.59181 1.93836 6.31051C1.65706 6.0292 1.49902 5.64767 1.49902 5.24985V2.99985C1.49902 2.60202 1.65706 2.22049 1.93836 1.93919C2.21967 1.65788 2.6012 1.49985 2.99902 1.49985H5.24902C5.64685 1.49985 6.02838 1.65788 6.30968 1.93919C6.59099 2.22049 6.74902 2.60202 6.74902 2.99985V5.24985Z" fill="#A1A5B7"/>
<path d="M14.999 -0.000152588H12.749C11.9534 -0.000152588 11.1903 0.315918 10.6277 0.878527C10.0651 1.44114 9.74902 2.2042 9.74902 2.99985V5.24985C9.74902 6.0455 10.0651 6.80856 10.6277 7.37117C11.1903 7.93378 11.9534 8.24985 12.749 8.24985H14.999C15.7947 8.24985 16.5577 7.93378 17.1203 7.37117C17.683 6.80856 17.999 6.0455 17.999 5.24985V2.99985C17.999 2.2042 17.683 1.44114 17.1203 0.878527C16.5577 0.315918 15.7947 -0.000152588 14.999 -0.000152588V-0.000152588ZM16.499 5.24985C16.499 5.64767 16.341 6.0292 16.0597 6.31051C15.7784 6.59181 15.3968 6.74985 14.999 6.74985H12.749C12.3512 6.74985 11.9697 6.59181 11.6884 6.31051C11.4071 6.0292 11.249 5.64767 11.249 5.24985V2.99985C11.249 2.60202 11.4071 2.22049 11.6884 1.93919C11.9697 1.65788 12.3512 1.49985 12.749 1.49985H14.999C15.3968 1.49985 15.7784 1.65788 16.0597 1.93919C16.341 2.22049 16.499 2.60202 16.499 2.99985V5.24985Z" fill="#A1A5B7"/>
<path d="M5.24902 9.74985H2.99902C2.20337 9.74985 1.44031 10.0659 0.877703 10.6285C0.315094 11.1911 -0.000976562 11.9542 -0.000976562 12.7498L-0.000976562 14.9998C-0.000976562 15.7955 0.315094 16.5586 0.877703 17.1212C1.44031 17.6838 2.20337 17.9998 2.99902 17.9998H5.24902C6.04467 17.9998 6.80773 17.6838 7.37034 17.1212C7.93295 16.5586 8.24902 15.7955 8.24902 14.9998V12.7498C8.24902 11.9542 7.93295 11.1911 7.37034 10.6285C6.80773 10.0659 6.04467 9.74985 5.24902 9.74985ZM6.74902 14.9998C6.74902 15.3977 6.59099 15.7792 6.30968 16.0605C6.02838 16.3418 5.64685 16.4998 5.24902 16.4998H2.99902C2.6012 16.4998 2.21967 16.3418 1.93836 16.0605C1.65706 15.7792 1.49902 15.3977 1.49902 14.9998V12.7498C1.49902 12.352 1.65706 11.9705 1.93836 11.6892C2.21967 11.4079 2.6012 11.2498 2.99902 11.2498H5.24902C5.64685 11.2498 6.02838 11.4079 6.30968 11.6892C6.59099 11.9705 6.74902 12.352 6.74902 12.7498V14.9998Z" fill="#A1A5B7"/>
<path d="M14.999 9.74985H12.749C11.9534 9.74985 11.1903 10.0659 10.6277 10.6285C10.0651 11.1911 9.74902 11.9542 9.74902 12.7498V14.9998C9.74902 15.7955 10.0651 16.5586 10.6277 17.1212C11.1903 17.6838 11.9534 17.9998 12.749 17.9998H14.999C15.7947 17.9998 16.5577 17.6838 17.1203 17.1212C17.683 16.5586 17.999 15.7955 17.999 14.9998V12.7498C17.999 11.9542 17.683 11.1911 17.1203 10.6285C16.5577 10.0659 15.7947 9.74985 14.999 9.74985ZM16.499 14.9998C16.499 15.3977 16.341 15.7792 16.0597 16.0605C15.7784 16.3418 15.3968 16.4998 14.999 16.4998H12.749C12.3512 16.4998 11.9697 16.3418 11.6884 16.0605C11.4071 15.7792 11.249 15.3977 11.249 14.9998V12.7498C11.249 12.352 11.4071 11.9705 11.6884 11.6892C11.9697 11.4079 12.3512 11.2498 12.749 11.2498H14.999C15.3968 11.2498 15.7784 11.4079 16.0597 11.6892C16.341 11.9705 16.499 12.352 16.499 12.7498V14.9998Z" fill="#A1A5B7"/>
</svg>
