<svg width="24" height="25" viewBox="0 0 24 25" fill="none" xmlns="http://www.w3.org/2000/svg">
<g clip-path="url(#clip0_1366_11116)">
<path d="M10.2118 2.14721L8.56141 0.997559C3.68537 2.44735 0 6.99196 0 12.5001C0 15.7053 1.248 18.719 3.51478 20.9853C5.78118 23.2521 8.79482 24.5001 12 24.5001L12.4549 14.806L12 7.53144L10.2118 2.14721Z" fill="#E74111"/>
<path d="M15.3473 0.970703L12.2118 5.3707L12.0118 7.65776L12 24.5001C15.2051 24.5001 18.2188 23.2521 20.4852 20.9853C22.752 18.7189 24 15.7053 24 12.5001C24 6.96426 20.2749 2.39287 15.3473 0.970703Z" fill="#E74111"/>
<path d="M10.9351 3.38479L10.8938 3.38973C6.41392 3.92813 2.82324 7.73703 2.82324 12.5C2.82324 17.572 6.92842 21.6765 11.9997 21.6765L12.4546 12.6568L11.9997 3.38281L10.9351 3.38479Z" fill="white"/>
<path d="M18.4889 6.01131L18.4888 6.01121C17.033 4.5554 15.1093 3.62302 13.0718 3.38566L13.0304 3.38086L12 3.38284V21.6765C14.4506 21.6765 16.7551 20.722 18.4889 18.9887C22.0748 15.4017 22.0754 9.59884 18.4889 6.01131Z" fill="white"/>
<path d="M19.7331 11.7941H13.9966C13.9716 11.7235 13.9432 11.6545 13.9111 11.5875L17.9674 7.53125C18.9809 8.74433 19.5921 10.2201 19.7331 11.7941Z" fill="#F3A088"/>
<path d="M10.004 13.2061C10.0291 13.2766 10.0575 13.3457 10.0896 13.4126L6.03332 17.4689C5.01981 16.2558 4.40857 14.78 4.26758 13.2061H10.004Z" fill="#FDDC80"/>
<path d="M11.0875 14.4106C11.1545 14.4427 11.2235 14.4711 11.2941 14.4962V20.2326C9.7201 20.0916 8.24424 19.4803 7.03125 18.4669L11.0875 14.4106Z" fill="#F3A088"/>
<path d="M12.7061 14.4962C12.7766 14.4711 12.8457 14.4427 12.9126 14.4106L16.9689 18.4669C15.7558 19.4804 14.28 20.0916 12.7061 20.2326V14.4962Z" fill="#F3A088"/>
<path d="M16.9684 6.53377L12.9126 10.5895C12.8457 10.5574 12.7766 10.5291 12.7061 10.504V4.79344L12.949 4.79297C14.4237 4.97278 15.8261 5.5837 16.9684 6.53377Z" fill="#FDDC80"/>
<path d="M11.0226 4.79642L11.2945 4.7959V10.5038C11.2239 10.5288 11.1549 10.5573 11.0879 10.5893L7.03223 6.53364C8.16752 5.58983 9.55966 4.98023 11.0226 4.79642Z" fill="#FDDC80"/>
<path d="M6.03327 7.53125L10.0896 11.5875C10.0575 11.6545 10.0291 11.7235 10.004 11.7941H4.26758C4.40857 10.2201 5.01986 8.74424 6.03327 7.53125Z" fill="#F3A088"/>
<path d="M17.9674 17.4689L13.9111 13.4126C13.9432 13.3457 13.9716 13.2766 13.9966 13.2061H19.7331C19.5921 14.7801 18.9808 16.2559 17.9674 17.4689Z" fill="#FDDC80"/>
<path d="M8.56152 0.997412L12.0001 7.63492L13.0354 2.97059L12.0001 0.5C10.8185 0.5 9.66317 0.669412 8.56152 0.997412Z" fill="#FBBA00"/>
<path d="M15.3473 0.970588C14.2729 0.660471 13.1492 0.5 12 0.5V7.63492L15.3473 0.970588Z" fill="#FBBA00"/>
<path d="M11.2939 12.4998C11.2939 12.8897 11.61 13.2057 11.9998 13.2057L12.4547 12.4998L11.9998 11.7939C11.61 11.7939 11.2939 12.11 11.2939 12.4998Z" fill="#E74111"/>
<path d="M12 11.7939V13.2057C12.3898 13.2057 12.7059 12.8897 12.7059 12.4998C12.7059 12.11 12.3898 11.7939 12 11.7939Z" fill="#E74111"/>
</g>
<defs>
<clipPath id="clip0_1366_11116">
<rect width="24" height="24" fill="white" transform="translate(0 0.5)"/>
</clipPath>
</defs>
</svg>
